<svg xmlns="http://www.w3.org/2000/svg" xmlns:xlink="http://www.w3.org/1999/xlink" viewBox="0 0 48 48"><defs><clipPath id="a"><path d="M24,48c23.815,0,24-10.745,24-24S47.815,0,24,0,0,10.745,0,24,.185,48,24,48Z" fill="none"/></clipPath><linearGradient id="b" x1="2421.5907" y1="-659.4156" x2="3085.6805" y2="-1330.4963" gradientTransform="matrix(0.0977, 0, 0, -0.0977, -244.5352, -72.7852)" gradientUnits="userSpaceOnUse"><stop offset="0" stop-color="#ffb768"/><stop offset="1" stop-color="#ff390f"/></linearGradient></defs><title>icon-castbox</title><g clip-path="url(#a)"><path d="M48,48H0V0H48Z" fill="url(#b)"/></g><path d="M26.5687,16.0406a1.5722,1.5722,0,0,0-1.6125,1.5282v3.7031a.9744.9744,0,0,1-1.9312,0V16.2375a1.6148,1.6148,0,0,0-3.225,0v4.0313a.9745.9745,0,0,1-1.9313,0V18.8063a1.6148,1.6148,0,0,0-3.225,0v3.4593a.9744.9744,0,0,1-1.9312,0v-.4031a1.6125,1.6125,0,0,0-3.225,0v4.8a1.6125,1.6125,0,0,0,3.225,0v-.4031a.9744.9744,0,0,1,1.9312,0v5.4937a1.6148,1.6148,0,0,0,3.225,0V24.2719a.9744.9744,0,0,1,1.9313,0v3.7687a1.6148,1.6148,0,0,0,3.225,0v-2.775a.9744.9744,0,0,1,1.9312,0v2.9625a1.6149,1.6149,0,0,0,3.2251,0V17.5688a1.5722,1.5722,0,0,0-1.6126-1.5282M31.725,20.175a1.5721,1.5721,0,0,0-1.6125,1.5281v6.0938a1.6148,1.6148,0,0,0,3.225,0V21.7031A1.5721,1.5721,0,0,0,31.725,20.175m5.1469,3.0938a1.572,1.572,0,0,0-1.6125,1.5281v1.5187a1.6148,1.6148,0,0,0,3.225,0V24.7969a1.5721,1.5721,0,0,0-1.6125-1.5281" fill="#fff"/></svg>