<svg xmlns="http://www.w3.org/2000/svg" viewBox="0 0 690 690"><title>icon-pocketcasts</title><rect x="1" width="690" height="690" fill="#f44336"/><path d="M339.8542,522.1744A177.3859,177.3859,0,0,1,168.5108,344.8962c-.0019-97.3746,80.0106-177.3872,177.3851-177.3853a177.386,177.386,0,0,1,177.278,171.3436,6.2734,6.2734,0,0,0,6.2833,6.0386H581.059a6.3015,6.3015,0,0,0,6.29-6.48c-3.4342-130.4035-110.2224-235.06-241.4545-235.0613A241.2524,241.2524,0,0,0,104.3513,344.8949c.0013,131.2319,104.6579,238.02,235.062,241.454a6.3006,6.3006,0,0,0,6.48-6.2895V528.4576a6.2731,6.2731,0,0,0-6.0386-6.2832Zm6.04-316.9223a139.6424,139.6424,0,0,0-6.5769,279.13,6.2932,6.2932,0,0,0,6.5751-6.289V437.1436a6.3876,6.3876,0,0,0-5.8379-6.27,86.1768,86.1768,0,1,1,91.8184-91.8184,6.3881,6.3881,0,0,0,6.27,5.8379h40.95a6.2928,6.2928,0,0,0,6.2887-6.5751A139.6449,139.6449,0,0,0,345.8946,205.2521Z" fill="#fff"/></svg>