<?xml version="1.0" encoding="utf-8"?>
<!-- Generator: Adobe Illustrator 22.1.0, SVG Export Plug-In . SVG Version: 6.00 Build 0)  -->
<svg version="1.1" id="Layer_1" xmlns="http://www.w3.org/2000/svg" xmlns:xlink="http://www.w3.org/1999/xlink" x="0px" y="0px"
	 viewBox="0 0 48 48" style="enable-background:new 0 0 48 48;" xml:space="preserve">
<style type="text/css">
	.st0{display:none;}
	.st1{display:inline;}
	.st2{display:inline;clip-path:url(#SVGID_2_);}
	.st3{fill:#3291C6;}
	.st4{fill:#621E69;}
	.st5{fill:#FBC700;}
	.st6{fill:#ED8B01;}
	.st7{fill:#C5361E;}
	.st8{clip-path:url(#SVGID_4_);}
	.st9{display:inline;clip-path:url(#SVGID_6_);}
	.st10{display:inline;clip-path:url(#SVGID_8_);}
</style>
<g id="Original" class="st0">
	<defs>
		<path id="SVGID_1_" d="M5,43c-3.7-3.7-5-9.7-5-19S1.4,8.7,5,5s9.7-5,19-5s15.3,1.4,19,5s5,9.7,5,19s-1.4,15.3-5,19s-9.7,5-19,5
			S8.7,46.6,5,43z"/>
	</defs>
	<clipPath id="SVGID_2_" class="st1">
		<use xlink:href="#SVGID_1_"  style="overflow:visible;"/>
	</clipPath>
	<g class="st2">
		<rect width="48" height="48"/>
		<rect y="17.7" class="st3" width="8.5" height="15.2"/>
		<rect x="9.8" y="15" class="st4" width="8.6" height="16.9"/>
		<rect x="19.8" y="16.4" class="st5" width="8.5" height="17.5"/>
		<rect x="29.7" y="13.8" class="st6" width="8.6" height="18.1"/>
		<rect x="39.6" y="16.9" class="st7" width="8.4" height="13.9"/>
	</g>
</g>
<g id="_x38__1_">
	<defs>
		<path id="SVGID_3_" d="M5,43c-3.7-3.7-5-9.7-5-19S1.4,8.7,5,5s9.7-5,19-5s15.3,1.4,19,5s5,9.7,5,19s-1.4,15.3-5,19s-9.7,5-19,5
			S8.7,46.6,5,43z"/>
	</defs>
	<clipPath id="SVGID_4_">
		<use xlink:href="#SVGID_3_"  style="overflow:visible;"/>
	</clipPath>
	<g class="st8">
		<rect width="48" height="48"/>
		<rect y="17.8" class="st3" width="8.5" height="15.2"/>
		<rect x="9.8" y="15" class="st4" width="8.6" height="16.9"/>
		<rect x="19.8" y="16.4" class="st5" width="8.5" height="17.5"/>
		<rect x="29.6" y="13.8" class="st6" width="8.6" height="18.1"/>
		<rect x="39.6" y="16.9" class="st7" width="8.4" height="13.9"/>
	</g>
</g>
<g id="_x34__1_" class="st0">
	<defs>
		<path id="SVGID_5_" d="M5,43c-3.7-3.7-5-9.7-5-19S1.4,8.7,5,5s9.7-5,19-5s15.3,1.4,19,5s5,9.7,5,19s-1.4,15.3-5,19s-9.7,5-19,5
			S8.7,46.6,5,43z"/>
	</defs>
	<clipPath id="SVGID_6_" class="st1">
		<use xlink:href="#SVGID_5_"  style="overflow:visible;"/>
	</clipPath>
	<g class="st9">
		<rect width="48" height="48"/>
		<rect y="17.8" class="st3" width="8.5" height="15.2"/>
		<rect x="9.9" y="15" class="st4" width="8.5" height="17"/>
		<rect x="19.8" y="16.5" class="st5" width="8.5" height="17.5"/>
		<rect x="29.6" y="13.8" class="st6" width="8.5" height="18"/>
		<rect x="39.5" y="17" class="st7" width="8.5" height="13.8"/>
	</g>
</g>
<g id="_x32_" class="st0">
	<defs>
		<path id="SVGID_7_" d="M5,43c-3.7-3.7-5-9.7-5-19S1.4,8.7,5,5s9.7-5,19-5s15.3,1.4,19,5s5,9.7,5,19s-1.4,15.3-5,19s-9.7,5-19,5
			S8.7,46.6,5,43z"/>
	</defs>
	<clipPath id="SVGID_8_" class="st1">
		<use xlink:href="#SVGID_7_"  style="overflow:visible;"/>
	</clipPath>
	<g class="st10">
		<rect width="48" height="48"/>
		<rect y="17.5" class="st3" width="8.5" height="15"/>
		<rect x="9.9" y="15" class="st4" width="8.5" height="17"/>
		<rect x="19.8" y="16.5" class="st5" width="8.5" height="17.5"/>
		<rect x="29.6" y="14" class="st6" width="8.5" height="18"/>
		<rect x="39.5" y="17" class="st7" width="8.5" height="14"/>
	</g>
</g>
</svg>
