<svg xmlns="http://www.w3.org/2000/svg" viewBox="0 0 48 48"><title>icon-spotify</title><path d="M24,48c23.815,0,24-10.745,24-24S47.815,0,24,0,0,10.745,0,24,.185,48,24,48Z" fill="#181413"/><path d="M24,5A19,19,0,1,0,43,24,19,19,0,0,0,24,5Zm8.7136,27.4047a1.1835,1.1835,0,0,1-1.6283.3941c-4.4617-2.727-10.0775-3.3428-16.6912-1.8321a1.1839,1.1839,0,1,1-.5272-2.3083c7.2375-1.6546,13.4458-.9426,18.4539,2.1177A1.1844,1.1844,0,0,1,32.7136,32.4047Zm2.3249-5.1737a1.4822,1.4822,0,0,1-2.0376.4878C27.895,24.58,20.1089,23.671,14.0682,25.5046a1.4811,1.4811,0,1,1-.8609-2.8343c6.9007-2.094,15.4793-1.08,21.3439,2.5242A1.4815,1.4815,0,0,1,35.0385,27.231Zm.2006-5.3871c-6.1246-3.6372-16.2268-3.9716-22.0734-2.1971a1.777,1.777,0,1,1-1.0317-3.401c6.7115-2.0373,17.8684-1.6437,24.919,2.5416a1.7771,1.7771,0,0,1-1.8139,3.0565Z" fill="#1ed760"/></svg>