<svg xmlns="http://www.w3.org/2000/svg" viewBox="0 0 48 48"><title>icon-googlepodcasts-proto</title><path d="M5.0494,42.9506C1.3663,39.2675,0,33.2675,0,24S1.3663,8.7325,5.0494,5.0494,14.7325,0,24,0,39.2675,1.3663,42.9506,5.0494,48,14.7325,48,24s-1.3663,15.2675-5.0494,18.9506S33.2675,48,24,48,8.7325,46.6337,5.0494,42.9506Z" fill="#fff"/><line x1="24" y1="10.25" x2="24" y2="12.25" fill="none" stroke="#fab908" stroke-linecap="round" stroke-miterlimit="10" stroke-width="4"/><line x1="24" y1="35.75" x2="24" y2="37.75" fill="none" stroke="#fab908" stroke-linecap="round" stroke-miterlimit="10" stroke-width="4"/><line x1="24" y1="18.246" x2="24" y2="29.754" fill="none" stroke="#fab908" stroke-linecap="round" stroke-miterlimit="10" stroke-width="4"/><line x1="17" y1="16.5" x2="17" y2="23.5" fill="none" stroke="#ea4335" stroke-linecap="round" stroke-miterlimit="10" stroke-width="4"/><line x1="17" y1="29.5" x2="17" y2="31.5" fill="none" stroke="#ea4335" stroke-linecap="round" stroke-miterlimit="10" stroke-width="4"/><line x1="31" y1="24.5" x2="31" y2="31.5" fill="none" stroke="#34a853" stroke-linecap="round" stroke-miterlimit="10" stroke-width="4"/><line x1="31" y1="18.5" x2="31" y2="16.5" fill="none" stroke="#34a853" stroke-linecap="round" stroke-miterlimit="10" stroke-width="4"/><line x1="38" y1="23" x2="38" y2="25" fill="none" stroke="#4285f4" stroke-linecap="round" stroke-miterlimit="10" stroke-width="4"/><line x1="10" y1="23" x2="10" y2="25" fill="none" stroke="#0066d9" stroke-linecap="round" stroke-miterlimit="10" stroke-width="4"/></svg>