<svg xmlns="http://www.w3.org/2000/svg" viewBox="0 0 690 690"><title>icon-radiopublic</title><rect width="690" height="690" fill="#cf2327"/><path d="M422.8006,290.0056c4.793-1.1371,9.6314-2.87,14.6243-2.3933,3.9108.8528,4.8839,5.7126,4.4019,9.1144.1819,15.1386.0091,30.2773.0909,45.4159.1456,3.9245-.0181,8.6468-3.32,11.3975-3.8289,4.5847-10.3316,4.0438-15.5883,5.2725C422.4824,335.88,422.837,312.9382,422.8006,290.0056Zm-174.764-55.9791c6.157-1.4029,12.76-3.98,19.1171-2.1365,2.4918,3.9246,1.5369,8.8943,1.9371,13.2864,0,12.0578.2092,24.1156-.1274,36.1732a12.8836,12.8836,0,0,1-6.9392,10.8932,67.0859,67.0859,0,0,1-13.5693,3.301C247.7182,275.0411,248.4094,254.5292,248.0366,234.0265Zm12.7962-41.3081c-18.5623,3.98-37.0064,9.3253-56.0508,10.3523q-.4775,10.8519-.3456,21.7223c.2274,74.9321-.1909,149.8551.2092,224.7872,14.7607-.917,29.2668-4.1171,43.6274-7.5465q-.2865-52.5679-.0455-105.1542c5.4205-1.2838,10.8136-3.2461,16.4706-2.8977,4.0471,1.669,4.4563,6.6478,4.2835,10.4349.4092,25.7383-.2637,51.4952.191,77.2335a33.049,33.049,0,0,0,3.5288,15.1662,210.8664,210.8664,0,0,1,44.546-7.473c-1.91-5.1166-3.5289-10.4623-3.5289-15.9823-.3546-27.3706.1092-54.75-.109-82.1208-.2274-6.822-.2092-14.0935-3.5471-20.2644-2.701-6.0884-8.8309-9.2977-14.5333-12.0027,4.2382-3.576,8.94-6.8679,11.7322-11.8011,7.0121-9.7562,7.5214-22.3365,7.3486-33.9083-.3457-15.7346,1.1732-31.8727-3.2833-47.1855a24.7226,24.7226,0,0,0-15.3245-16.129C284.3609,185.86,272.31,190.2794,260.8328,192.7184Zm182.1308,54.2644c-21.1451,4.7864-42.1631,10.499-63.7721,12.7822-.2,81.8641-.0273,163.7282-.0819,245.5925l-.0637.8069c14.6153-1.6047,28.985-4.7589,43.4273-7.4731.8367-33.1381-.1455-66.3037.4366-99.46,10.7954-2.1,21.7-4.09,31.977-8.1516a49.2094,49.2094,0,0,0,21.5272-15.9087,56.02,56.02,0,0,0,9.6313-27.9576c.9095-16.6607.1183-33.3581.4274-50.0373-.1273-11.2783.6458-22.85-2.8284-33.7523-1.5915-6.116-5.8752-11.2784-10.9774-14.772C463.5359,243.8194,452.7223,245.094,442.9636,246.9828ZM323.2954,117.2362a116.2432,116.2432,0,0,1,55.7323,10.6c.2638,22.2449-.0636,44.4991.1092,66.744,38.4889-4.1629,75.2133-18.66,113.966-20.97,20.1084-1.43,40.89,1.7147,58.961,10.9757q-.423,188.8158-.0455,377.6316c-22.373-10.9483-48.1566-12.883-72.5486-9.72C443.9,557.32,409.7225,570.1116,373.771,572.5231a118.8393,118.8393,0,0,1-60.0616-10.4805c-.2546-22.2449.0455-44.49-.1-66.7348-32.4955,3.2644-63.6085,14.13-95.8584,18.8431-20.9179,3.1726-42.8543,4.1721-63.272-2.32-5.575-1.3937-10.7681-3.897-16.1613-5.8225q-.3-11.2922-.2455-22.575c.1637-118.3491-.191-236.7074.1727-355.0566q5.0886,1.6368,10.0315,3.6953c17.78,6.6295,37.0883,7.3722,55.8234,6.2627C244.3531,134.4012,282.6874,118.6758,323.2954,117.2362Z" fill="#fff"/><path d="M313.61,495.3078c13.6639.1369,27.6136-.1955,40.9919,3.3,8.4269,1.6427,16.4416,4.5905,24.4445,7.5566l-.0763.9218a19.0086,19.0086,0,0,1-3.0886,7.2281c-7.4959,10.6688-17.7023,19.0651-28.2684,26.6219a291.52,291.52,0,0,1-33.9032,21.1064C313.4605,540.0843,313.591,517.2661,313.61,495.3078Z" fill="#d2d3d5"/></svg>