<svg xmlns="http://www.w3.org/2000/svg" viewBox="0 0 48 48"><title>icon-tunein</title><path d="M24,48c23.815,0,24-10.745,24-24S47.815,0,24,0,0,10.745,0,24,.185,48,24,48Z" fill="#1c1f3e"/><path d="M10.7952,21.9643v.977a.21.21,0,0,1-.1954.1954H9.3785a.1051.1051,0,0,0-.0977.0976v5.1781a.21.21,0,0,1-.1953.1954h-.977a.21.21,0,0,1-.1954-.1954V23.2343a.1051.1051,0,0,0-.0977-.0977H6.5941a.21.21,0,0,1-.1954-.1953v-.977a.21.21,0,0,1,.1954-.1954H10.6A.21.21,0,0,1,10.7952,21.9643Zm5.1621-.1954H14.98a.21.21,0,0,0-.1954.1954v4.5918c0,.44-.342.7816-.9526.7816-.5862,0-.9281-.3419-.9281-.7816V21.9643a.21.21,0,0,0-.1954-.1954h-.977a.21.21,0,0,0-.1954.1954v4.5918a2.2038,2.2038,0,0,0,2.2959,2.1494,2.2105,2.2105,0,0,0,2.32-2.1494V21.9643a.21.21,0,0,0-.1954-.1954Zm5.45,0H20.43a.21.21,0,0,0-.1954.1954V25.628a.0525.0525,0,0,1-.0977.0244L18.7935,21.94a.2238.2238,0,0,0-.2443-.1709H17.3768a.21.21,0,0,0-.1954.1954v6.4481a.21.21,0,0,0,.1954.1954h.977a.21.21,0,0,0,.1954-.1954V25.0418a.0524.0524,0,0,1,.0977-.0244l1.319,3.4194a.2592.2592,0,0,0,.2686.171h1.148a.21.21,0,0,0,.1954-.1954V21.9643A.1731.1731,0,0,0,21.4069,21.7689ZM26.4628,27.24h-2.32a.105.105,0,0,1-.0977-.0977V25.97a.1051.1051,0,0,1,.0977-.0977h2.1982a.21.21,0,0,0,.1954-.1954V24.7a.21.21,0,0,0-.1954-.1954H24.1425a.105.105,0,0,1-.0977-.0977V23.2343a.1051.1051,0,0,1,.0977-.0977H26.414a.21.21,0,0,0,.1954-.1953v-.977a.21.21,0,0,0-.1954-.1954H22.8724a.21.21,0,0,0-.1954.1954v6.4481a.21.21,0,0,0,.1954.1954h3.59a.21.21,0,0,0,.1954-.1954v-.977A.21.21,0,0,0,26.4628,27.24ZM43.4,14.4H29a.5893.5893,0,0,0-.6.6v3.4H4.6A.5893.5893,0,0,0,4,19V31.4a.5893.5893,0,0,0,.6.6H29a.5893.5893,0,0,0,.6-.6V28H43.4a.5893.5893,0,0,0,.6-.6V15A.5893.5893,0,0,0,43.4,14.4Zm-15,16.3a.0945.0945,0,0,1-.1.1H5.3a.0945.0945,0,0,1-.1-.1v-11a.0945.0945,0,0,1,.1-.1H28.4Zm6.9786-6.23a.2131.2131,0,0,1-.1982.1982H31.91a.2131.2131,0,0,1-.1982-.1982v-.9414a.2131.2131,0,0,1,.1982-.1982h.8423a.1066.1066,0,0,0,.0991-.0991V19.1686a.1066.1066,0,0,0-.0991-.0991h-.7432a.2131.2131,0,0,1-.1982-.1982V17.93a.2131.2131,0,0,1,.1982-.1982h3.0719a.2131.2131,0,0,1,.1982.1982v.9414a.2131.2131,0,0,1-.1982.1982h-.7432a.1066.1066,0,0,0-.0991.0991v4.0628a.1066.1066,0,0,0,.0991.0991H35.18a.2131.2131,0,0,1,.1982.1982Zm5.5493,0a.2131.2131,0,0,1-.1982.1982H39.5654a.2632.2632,0,0,1-.2726-.1734l-1.3377-3.4683a.0532.0532,0,0,0-.0991.0248V24.47a.2131.2131,0,0,1-.1982.1982h-.991a.2131.2131,0,0,1-.1982-.1982V17.93a.2131.2131,0,0,1,.1982-.1982h1.1644a.2269.2269,0,0,1,.2477.1734l1.3625,3.7656a.0532.0532,0,0,0,.0991-.0248V17.93a.2131.2131,0,0,1,.1982-.1982h.991a.2131.2131,0,0,1,.1982.1982Z" fill="#00d9cd"/></svg>