<svg xmlns="http://www.w3.org/2000/svg" viewBox="0 0 690 690"><title>icon-tunein</title><rect width="690" height="690" fill="#1c1f3e"/><path d="M157.9916,318.5259v13.8732a2.9839,2.9839,0,0,1-2.7747,2.7747H137.8754a1.4918,1.4918,0,0,0-1.3873,1.3873v73.5281a2.9839,2.9839,0,0,1-2.7747,2.7747H119.84a2.9838,2.9838,0,0,1-2.7747-2.7747V336.5611a1.4919,1.4919,0,0,0-1.3873-1.3874H98.3366a2.9838,2.9838,0,0,1-2.7746-2.7746V318.5258a2.9839,2.9839,0,0,1,2.7747-2.7746h56.88A2.9838,2.9838,0,0,1,157.9916,318.5259Zm73.3028-2.7747H217.4211a2.9838,2.9838,0,0,0-2.7746,2.7747V383.73c0,6.2429-4.8557,11.0985-13.5264,11.0985-8.324,0-13.18-4.8556-13.18-11.0985V318.5259a2.9839,2.9839,0,0,0-2.7747-2.7747H171.2926a2.9839,2.9839,0,0,0-2.7747,2.7747V383.73c0,16.6479,13.8733,30.5211,32.6021,30.5211,19.0757,0,32.949-13.8732,32.949-30.5211V318.5259a2.9839,2.9839,0,0,0-2.7747-2.7747Zm77.3837,0H294.8049a2.9839,2.9839,0,0,0-2.7747,2.7747v52.0246a.7448.7448,0,0,1-1.3873.3468L271.5672,318.179a3.1774,3.1774,0,0,0-3.4683-2.4278H251.4511a2.9839,2.9839,0,0,0-2.7747,2.7747v91.5633a2.9838,2.9838,0,0,0,2.7747,2.7747h13.8732a2.9838,2.9838,0,0,0,2.7746-2.7747V362.2266a.7448.7448,0,0,1,1.3873-.3469l18.7289,48.5564a3.6835,3.6835,0,0,0,3.8151,2.4278h16.3011a2.9839,2.9839,0,0,0,2.7746-2.7747V318.5259A2.4577,2.4577,0,0,0,308.6781,315.7512Zm71.794,77.69H347.5232a1.4918,1.4918,0,0,1-1.3873-1.3873V375.4061a1.4918,1.4918,0,0,1,1.3873-1.3873h31.2147a2.984,2.984,0,0,0,2.7747-2.7747V357.3709a2.9839,2.9839,0,0,0-2.7747-2.7747H347.5232a1.4918,1.4918,0,0,1-1.3873-1.3873V336.5611a1.4919,1.4919,0,0,1,1.3873-1.3874h32.2552a2.9839,2.9839,0,0,0,2.7747-2.7746V318.5258a2.9838,2.9838,0,0,0-2.7747-2.7746h-50.29a2.9839,2.9839,0,0,0-2.7747,2.7746v91.5634a2.9838,2.9838,0,0,0,2.7747,2.7746h50.9841a2.9838,2.9838,0,0,0,2.7746-2.7746V396.2159A2.9838,2.9838,0,0,0,380.4721,393.4413Zm240.5084-182.328H416.5a8.3679,8.3679,0,0,0-8.52,8.52v48.28H70.02a8.3679,8.3679,0,0,0-8.52,8.52v176.08a8.3679,8.3679,0,0,0,8.52,8.52H416.5a8.3679,8.3679,0,0,0,8.52-8.52v-48.28H620.9805a8.368,8.368,0,0,0,8.5195-8.52v-176.08A8.368,8.368,0,0,0,620.9805,211.1133Zm-213,231.46a1.3414,1.3414,0,0,1-1.42,1.42H79.96a1.3415,1.3415,0,0,1-1.42-1.42v-156.2a1.3415,1.3415,0,0,1,1.42-1.42H407.98Zm99.0962-88.4643a3.0266,3.0266,0,0,1-2.8145,2.8143H457.8262a3.0265,3.0265,0,0,1-2.8145-2.8143V340.7411a3.0265,3.0265,0,0,1,2.8145-2.8142h11.9609a1.5132,1.5132,0,0,0,1.4067-1.4072V278.8269a1.5132,1.5132,0,0,0-1.4067-1.4071H459.2334a3.0267,3.0267,0,0,1-2.8145-2.8143V261.2376a3.0267,3.0267,0,0,1,2.8145-2.8143h43.6211a3.0266,3.0266,0,0,1,2.8144,2.8143v13.3679a3.0266,3.0266,0,0,1-2.8144,2.8143H492.3013a1.5134,1.5134,0,0,0-1.4073,1.4071V336.52a1.5134,1.5134,0,0,0,1.4073,1.4072h11.96a3.0266,3.0266,0,0,1,2.8145,2.8142Zm78.8,0a3.0266,3.0266,0,0,1-2.8145,2.8143H566.5283a3.7363,3.7363,0,0,1-3.87-2.4625l-18.9961-49.25a.7555.7555,0,0,0-1.4072.3518V354.109a3.0265,3.0265,0,0,1-2.8145,2.8143H525.3691a3.0265,3.0265,0,0,1-2.8144-2.8143V261.2377a3.0265,3.0265,0,0,1,2.8144-2.8143h16.5342c2.11,0,3.166,1.0553,3.5176,2.4625l19.3477,53.4713a.7554.7554,0,0,0,1.4072-.3517V261.2377a3.0266,3.0266,0,0,1,2.8144-2.8144h14.0713a3.0266,3.0266,0,0,1,2.8145,2.8144Z" fill="#00d9cd"/></svg>