<svg xmlns="http://www.w3.org/2000/svg" viewBox="0 0 48 48"><title>icon-pocketcasts</title><path d="M24,48c23.815,0,24-10.745,24-24S47.815,0,24,0,0,10.745,0,24,.185,48,24,48Z" fill="#f44336"/><path d="M23.5675,36.472A12.4866,12.4866,0,1,1,36.472,23.5675a.4416.4416,0,0,0,.4423.4251h3.6324a.4436.4436,0,0,0,.4428-.4562A17.003,17.003,0,1,0,23.5365,40.99a.4435.4435,0,0,0,.4561-.4428V36.9143a.4417.4417,0,0,0-.4251-.4423Zm.4252-22.3092a9.83,9.83,0,0,0-.463,19.6489.443.443,0,0,0,.4629-.4427V30.4864a.45.45,0,0,0-.411-.4413,6.0663,6.0663,0,1,1,6.4634-6.4635.45.45,0,0,0,.4414.411H33.369a.443.443,0,0,0,.4427-.4628,9.83,9.83,0,0,0-9.819-9.367Z" fill="#fff"/></svg>