<svg xmlns="http://www.w3.org/2000/svg" xmlns:xlink="http://www.w3.org/1999/xlink" viewBox="0 0 48 48"><defs><linearGradient id="a" x1="24" x2="24" y2="48" gradientUnits="userSpaceOnUse"><stop offset="0" stop-color="#fa9c39"/><stop offset="1" stop-color="#e26c2d"/></linearGradient></defs><title>icon-rss</title><path d="M24,48c23.815,0,24-10.745,24-24S47.815,0,24,0,0,10.745,0,24,.185,48,24,48Z" fill="url(#a)"/><path d="M9.4447,9.4447v5.6471a23.5623,23.5623,0,0,1,23.52,23.4635h5.6471A29.1671,29.1671,0,0,0,9.4447,9.4306Zm0,9.8823v5.6471A13.6376,13.6376,0,0,1,23.0682,38.6259h5.6471A19.2566,19.2566,0,0,0,9.4447,19.327Zm3.8682,11.4636a3.8682,3.8682,0,1,0,3.8824,3.8682A3.8682,3.8682,0,0,0,13.3129,30.7906Z" fill="#fff"/></svg>