<svg xmlns="http://www.w3.org/2000/svg" xmlns:xlink="http://www.w3.org/1999/xlink" viewBox="0 0 48 48"><defs><linearGradient id="a" x1="24" x2="24" y2="48" gradientUnits="userSpaceOnUse"><stop offset="0" stop-color="#d56efc"/><stop offset="1" stop-color="#842bc1"/></linearGradient></defs><title>icon-itunes</title><path d="M24,48c23.815,0,24-10.745,24-24S47.815,0,24,0,0,10.745,0,24,.185,48,24,48Z" fill="url(#a)"/><path d="M23.6894,13.0729a9.1342,9.1342,0,0,1,6.6212,15.7977.7059.7059,0,0,0-.2259.5506,16.6193,16.6193,0,0,1,0,1.92.2259.2259,0,0,0,.353.1976,11.2942,11.2942,0,1,0-12.7059,0,.2259.2259,0,0,0,.3388-.1976,15.7587,15.7587,0,0,1,0-1.9341.692.692,0,0,0-.2259-.5506,9.1342,9.1342,0,0,1,5.8024-15.7836ZM24,5.3365a16.9411,16.9411,0,0,0-5.6471,32.7811.2259.2259,0,0,0,.2965-.24c-.0847-.5788-.1694-1.1576-.24-1.7223a.5789.5789,0,0,0-.3388-.4518,14.7106,14.7106,0,1,1,11.7459,0,.579.579,0,0,0-.3389.4518c-.07.5647-.1553,1.1576-.24,1.7223a.2373.2373,0,1,0,.4095.24A16.9411,16.9411,0,0,0,24,5.3365ZM20.0753,20.8376A3.9247,3.9247,0,1,0,24,16.9412,3.9248,3.9248,0,0,0,20.0753,20.8376ZM27.4729,27.6A4.8142,4.8142,0,0,0,24,26.3435a4.8,4.8,0,0,0-3.4729,1.2424,2.2018,2.2018,0,0,0-.6353,1.4117,17.9239,17.9239,0,0,0,.0706,3.6283c.127,1.4117.367,3.4306.6776,5.4353A20.794,20.794,0,0,0,21.2047,40.8a2.7106,2.7106,0,0,0,2.8235,1.6659A2.7107,2.7107,0,0,0,26.8518,40.8a20.646,20.646,0,0,0,.5647-2.7388c.3106-1.9906.5506-3.953.6776-5.4353a18.094,18.094,0,0,0,.0847-3.6283A2.2019,2.2019,0,0,0,27.4729,27.6Z" fill="#fff"/></svg>