<svg xmlns="http://www.w3.org/2000/svg" viewBox="0 0 690 690"><title>icon-spotify</title><rect width="690" height="690" fill="#181413"/><path d="M345,73C194.781,73,73,194.777,73,344.9959,73,495.2285,194.781,617,345,617c150.2244,0,272-121.7714,272-272.004C617,194.777,495.2245,73,345,73ZM469.7418,465.32a16.9412,16.9412,0,0,1-23.31,5.641c-63.8733-39.0392-144.2679-47.855-238.9477-26.2277a16.9482,16.9482,0,1,1-7.548-33.0453c103.6107-23.6866,192.488-13.4937,264.1818,30.3171A16.9552,16.9552,0,0,1,469.7418,465.32Zm33.2832-74.0662a21.2177,21.2177,0,0,1-29.17,6.9835C400.76,353.3061,289.2965,340.29,202.8184,366.54a21.2031,21.2031,0,1,1-12.3248-40.5757c98.79-29.9774,221.5986-15.4583,305.5545,36.1357A21.2074,21.2074,0,0,1,503.025,391.2541Zm2.8711-77.1208c-87.6774-52.069-232.2987-56.8565-315.9977-31.4526a25.44,25.44,0,1,1-14.77-48.6882c96.08-29.1656,255.8-23.5315,356.7356,36.3847a25.4409,25.4409,0,0,1-25.9684,43.7561Z" fill="#1ed760"/></svg>