<svg xmlns="http://www.w3.org/2000/svg" xmlns:xlink="http://www.w3.org/1999/xlink" viewBox="0 0 690 690"><defs><linearGradient id="a" x1="345" x2="345" y2="690" gradientUnits="userSpaceOnUse"><stop offset="0" stop-color="#ff9a20"/><stop offset="1" stop-color="#ff7724"/></linearGradient><linearGradient id="b" x1="345" y1="69" x2="345" y2="621" gradientUnits="userSpaceOnUse"><stop offset="0" stop-color="#444e58"/><stop offset="1" stop-color="#22312c"/></linearGradient></defs><title>icon-overcast</title><rect width="690" height="690" fill="url(#a)"/><circle cx="345" cy="345" r="260" fill="#fff"/><path d="M345,621A276,276,0,1,1,621,345,275.3348,275.3348,0,0,1,345,621Zm0-109.2477,20.7-20.7-20.7-79.35-20.7,79.35ZM318.5523,510.6l-10.35,39.1023,24.15-24.15Zm52.8954,0-13.8,13.8,24.15,24.15Zm19.5546,71.2977L345,535.9023l-46.0023,45.9954C313.95,584.2023,328.9023,586.5,345,586.5S376.05,585.3477,391.0023,581.8977ZM345,103.5c-133.3977,0-241.5,108.1023-241.5,241.5A240.3248,240.3248,0,0,0,265.65,572.7L317.4,380.6523C305.8977,372.6,298.9977,358.8,298.9977,343.8477a46.0023,46.0023,0,0,1,92.0046,0c0,14.9523-6.9,27.6-18.4023,36.8046L424.35,572.7A240.3248,240.3248,0,0,0,586.5,345C586.5,211.6023,478.3977,103.5,345,103.5Z" fill="url(#b)"/><path d="M502.5477,464.5977c-5.7477,6.9-16.0977,9.2046-24.15,3.45-8.0454-5.7477-9.1977-16.0977-3.45-22.9977,0,0,31.05-41.4,31.05-100.05s-31.05-100.05-31.05-100.05c-5.7477-6.9-4.5954-17.25,3.45-22.9977,8.0523-5.7546,18.4023-3.45,24.15,3.45,2.3046,2.2977,37.95,49.4454,37.95,119.5977S504.8523,462.3,502.5477,464.5977Zm-83.9454-44.85c-6.9-6.9-5.7546-19.5477,1.1454-26.4477,0,0,17.25-18.4023,17.25-48.3s-17.25-47.1477-17.25-48.3c-6.9-6.9-6.9-18.4023-1.1454-26.4477,6.9-8.0523,17.25-8.0523,24.15-1.1523,1.1454,1.1523,28.7454,29.8977,28.7454,75.9s-27.6,74.7477-28.7454,75.9C435.8523,427.8,425.5023,426.6477,418.6023,419.7477Zm-147.2046,0c-6.9,6.9-17.25,8.0523-24.15,1.1523-1.1454-2.2977-28.7454-29.8977-28.7454-75.9s27.6-73.6023,28.7454-75.9c6.9-6.9,18.4023-6.9,24.15,1.1523,6.9,6.9,5.7546,19.5477-1.1454,26.4477,0,1.1523-17.25,18.4023-17.25,48.3s17.25,48.3,17.25,48.3A19.4739,19.4739,0,0,1,271.3977,419.7477Zm-59.7954,48.3c-8.0523,5.7546-18.4023,3.45-24.15-3.45-2.3046-2.2977-37.95-49.4454-37.95-119.5977s35.6454-117.3,37.95-119.5977c5.7477-6.9,16.0977-9.2046,24.15-3.45,8.0454,5.7477,9.1977,16.0977,3.45,22.9977,0,0-31.05,41.4-31.05,100.05s31.05,100.05,31.05,100.05C220.8,451.95,218.5023,462.3,211.6023,468.0477Z" fill="#ff9a20"/></svg>