<svg id="Layer_1" data-name="Layer 1" xmlns="http://www.w3.org/2000/svg" xmlns:xlink="http://www.w3.org/1999/xlink" viewBox="0 0 690 690">
  <defs>
    <style>
      .cls-1 {
        fill: url(#linear-gradient);
      }

      .cls-2 {
        fill: #fff;
      }
    </style>
    <linearGradient id="linear-gradient" x1="345" x2="345" y2="690" gradientUnits="userSpaceOnUse">
      <stop offset="0" stop-color="#d56efc"/>
      <stop offset="1" stop-color="#842bc1"/>
    </linearGradient>
  </defs>
  <title>icon-itunes</title>
  <g id="iTunes">
    <rect class="cls-1" width="690" height="690"/>
    <path id="SVGID" class="cls-2" d="M340.5353,187.9235a131.303,131.303,0,0,1,95.18,227.0912,10.1469,10.1469,0,0,0-3.2471,7.9148,239.07,239.07,0,0,1,0,27.6,3.2471,3.2471,0,0,0,5.0736,2.841,162.353,162.353,0,1,0-182.6472,0,3.2469,3.2469,0,0,0,4.8706-2.841,226.6758,226.6758,0,0,1,0-27.803,9.9443,9.9443,0,0,0-3.247-7.9147,131.303,131.303,0,0,1,83.4088-226.8883ZM345,76.7118a243.5294,243.5294,0,0,0-81.1765,471.2294,3.2471,3.2471,0,0,0,4.2618-3.45c-1.2176-8.3207-2.4353-16.6412-3.45-24.7589a8.32,8.32,0,0,0-4.8706-6.494,211.4647,211.4647,0,1,1,168.8471,0,8.3205,8.3205,0,0,0-4.8706,6.494c-1.0147,8.1177-2.2324,16.6412-3.45,24.7589a3.411,3.411,0,0,0,5.8853,3.45A243.5294,243.5294,0,0,0,345,76.7118ZM288.5823,299.5412A56.4177,56.4177,0,1,0,345,243.5294,56.4178,56.4178,0,0,0,288.5823,299.5412ZM394.9235,396.75A69.2025,69.2025,0,0,0,345,378.6883a69,69,0,0,0-49.9235,17.8587,31.6583,31.6583,0,0,0-9.1324,20.2942,257.7453,257.7453,0,0,0,1.0147,52.1558c1.8265,20.2942,5.2765,49.3148,9.7412,78.1324A298.9286,298.9286,0,0,0,304.8177,586.5a38.9648,38.9648,0,0,0,40.5883,23.9471A38.9647,38.9647,0,0,0,385.9941,586.5a296.6823,296.6823,0,0,0,8.1177-39.3706c4.4647-28.6147,7.9147-56.8234,9.7412-78.1324a260.1663,260.1663,0,0,0,1.2176-52.1558A31.6584,31.6584,0,0,0,394.9235,396.75Z"/>
  </g>
</svg>
