<svg id="Layer_1" data-name="Layer 1" xmlns="http://www.w3.org/2000/svg" xmlns:xlink="http://www.w3.org/1999/xlink" viewBox="0 0 690 690">
  <defs>
    <style>
      .cls-1 {
        fill: url(#radial-gradient);
      }

      .cls-2 {
        fill: #ffdb66;
        fill-opacity: 0.1;
      }

      .cls-3 {
        fill: #0069ff;
      }

      .cls-4 {
        fill: #5c9dff;
      }

      .cls-5 {
        fill: #b2d2ff;
      }

      .cls-6 {
        fill: #d9e9ff;
      }

      .cls-7 {
        fill: #fff;
      }

      .cls-8 {
        fill: #003dad;
      }
    </style>
    <radialGradient id="radial-gradient" cx="7.363" cy="16.203" r="15.4539" gradientTransform="translate(113.8597 -9.3314) scale(31.3922 31.3922)" gradientUnits="userSpaceOnUse">
      <stop offset="0" stop-color="#fff266"/>
      <stop offset="0.165" stop-color="#ffa866"/>
      <stop offset="0.3766" stop-color="#ff7066"/>
      <stop offset="0.6562" stop-color="#ff40c0"/>
    </radialGradient>
  </defs>
  <title>icon-breaker</title>
  <g id="Breaker">
    <rect class="cls-1" width="690" height="689.9999"/>
    <path id="sunrays" class="cls-2" d="M236.7955,0,331.2,448.8137,335.9045,0h3.7637l5.0182,448.8136L439.0909,0h3.45L357.8591,451.3227,549.8045,1.8819a9.1585,9.1585,0,0,1,2.8227.6272L370.4045,456.6545,646.0909,53.9455c.6272.6273,1.2545,1.5682,1.8818,2.1954L381.6955,464.1818,690,162.4637v5.9591L391.1046,473.9046,690,278.8228v6.9L398.6318,484.8819,690,367.8955v7.2136L403.9637,497.4272,690,443.7955v7.2136L406.4727,510.6,690,513.7364V520.95l-283.5273,3.1363,272.8637,57.3955c-.941,2.5091-1.8818,4.7045-2.8228,6.9L403.65,537.2591,642.6408,639.1909a56.3651,56.3651,0,0,1-6.2727,5.9591l-238.05-95.6591L585.2453,677.4546c-3.45,1.2545-6.5863,2.509-10.0363,3.7636L390.7908,560.7819,516.8726,689.3728h-13.8L381.3817,570.191l77.7818,119.1818H446.6181L370.0908,577.7183,415.2545,690H403.3364L357.8591,583.6773,377.9318,690H366.6409L344.6863,586.1864,343.4318,690H332.1409l-1.2546-103.8136L309.2455,690h-11.291l20.0728-106.3227L272.2364,690H260.3182l44.85-111.6545L228.9546,690H216.4091l77.7818-119.1818L172.1864,690h-5.6455a70.8983,70.8983,0,0,1-8.1546-.3136l125.7682-128.591-179.4,116.9864c-3.1364-1.2546-6.5864-2.8227-9.7228-4.0773l181.2818-124.2-227.7,91.5818c-2.1954-2.1954-4.0773-4.0772-5.9591-6.2727l228.6409-97.5409L11.9182,586.1863c-.941-2.5091-1.8819-5.0182-2.8228-7.2137L268.7863,524.4,0,521.2637v-7.5273l269.1-2.8227L0,454.1455v-7.5273l271.9227,51.1227L0,381.3818v-7.5272L276.9409,485.1955,0,295.4455v-7.5273L284.4682,473.5909,0,182.85v-6.5863L294.1909,463.8682,34.1864,65.8637a8.4555,8.4555,0,0,1,2.1954-2.5091l269.1,393.6136L124.2,5.6455a9.1587,9.1587,0,0,1,2.8227-.6273l190.691,446.6182L233.0318,0Z"/>
    <g id="Wave_Colors" data-name="Wave Colors">
      <path id="path18_fill" data-name="path18 fill" class="cls-3" d="M690,530.3591C689.3727,618.8045,689.3728,690,689.3728,690H405.8455c-.3137-.3136-.6273-.6273-.6273-.9409A685.6134,685.6134,0,0,1,267.8455,448.1864a137.2837,137.2837,0,0,0,102.2454,90.3272c45.7909,9.7227,86.8773,14.7409,142.3909,14.7409A678.6256,678.6256,0,0,0,690,530.3591Z"/>
      <path id="path19_fill" data-name="path19 fill" class="cls-4" d="M405.5318,690s-269.5-.6273-281.6454-.6273c2.1954-16.6227,5.0181-37.009,8.1545-53.3181a687.1937,687.1937,0,0,1,161.5228-320.85,136.4972,136.4972,0,0,0-33.5591,89.7A133.7962,133.7962,0,0,0,267.2182,448.5,693.31,693.31,0,0,0,404.591,689.3728C405.2182,689.3727,405.2182,689.6864,405.5318,690Z"/>
      <path id="path20_fill" data-name="path20 fill" class="cls-5" d="M123.8864,689.3727H0V316.1455a692.0462,692.0462,0,0,1,423.7227-45.1636,147.8017,147.8017,0,0,0-26.6591-2.5091,136.607,136.607,0,0,0-102.8727,46.7319A685.8539,685.8539,0,0,0,132.3545,636.3683C128.9045,652.3636,126.0818,672.4363,123.8864,689.3727Z"/>
      <path id="path21_fill" data-name="path21 fill" class="cls-6" d="M281.9591,256.2409a681.49,681.49,0,0,1,141.7636,14.741c47.6728,9.4091,86.5637,44.2227,102.2455,89.3863q.9409,2.8227,1.8818,5.6455-.941-2.8227-1.8818-5.6455C477.0409,211.3909,378.8727,84.9955,250.9091,0H0V316.1455A687.4175,687.4175,0,0,1,281.9591,256.2409Z"/>
      <path id="path22_fill" data-name="path22 fill" class="cls-7" d="M690,344.0591V0H250.9091A691.49,691.49,0,0,1,527.85,365.7c3.45,10.9773,7.8409,26.6591,11.2909,38.8909A230.7079,230.7079,0,0,0,690,344.0591Z"/>
    </g>
    <path class="cls-8" d="M311.19,330.372a104.6408,104.6408,0,0,0-27.738,74.382,102.2429,102.2429,0,0,0,5.934,36.294,111.7264,111.7264,0,0,0,32.292,48.714,114.4534,114.4534,0,0,0,52.578,26.358h.138A621.3306,621.3306,0,0,0,511.98,530.472,649.3942,649.3942,0,0,0,690,506.46v47.196a717.69,717.69,0,0,1-178.02,22.77,674.2554,674.2554,0,0,1-146.97-15.318,142.778,142.778,0,0,1-27.6-8.694,653.5284,653.5284,0,0,0,84.87,121.578c4.83,5.382,9.66,10.764,14.49,16.008H375.498a720.2958,720.2958,0,0,1-129.72-234.048v-.138c0-.138-.138-.138-.138-.276a166.0947,166.0947,0,0,1-6.486-28.566,653.3671,653.3671,0,0,0-84.318,213.762c-3.312,16.146-6.072,32.568-8.004,49.266h-46.23c2.208-20.01,5.244-39.606,9.108-58.512a721.1094,721.1094,0,0,1,167.256-331.89,163.2379,163.2379,0,0,1,21.39-20.01c-5.52-.138-10.902-.414-16.422-.414A652.5132,652.5132,0,0,0,0,341.274V291.456a716.5369,716.5369,0,0,1,281.934-58.374,726.7274,726.7274,0,0,1,146.004,15.18h.138a158.7755,158.7755,0,0,1,28.152,8.694A669.0673,669.0673,0,0,0,207.138,0h83.904a707.2116,707.2116,0,0,1,79.764,67.896A711.5444,711.5444,0,0,1,549.654,358.8c2.07,6.21,4.278,13.938,6.486,21.804A209.4148,209.4148,0,0,0,690,311.466v62.652a253.7073,253.7073,0,0,1-150.558,53.544l-18.078.414-4.692-17.526c-3.174-12.144-7.452-27.324-10.764-37.812l-.414-.828a114.2021,114.2021,0,0,0-86.388-78.522,107.0116,107.0116,0,0,0-22.08-2.208,113.6336,113.6336,0,0,0-85.56,38.778l-.138.138v.138A.138.138,0,0,0,311.19,330.372Z"/>
  </g>
</svg>
