<svg xmlns="http://www.w3.org/2000/svg" viewBox="0 0 48 48"><title>icon-googlepodcasts</title><path d="M24,48c23.815,0,24-10.745,24-24S47.815,0,24,0,0,10.745,0,24,.185,48,24,48Z" fill="#fff"/><polygon points="22.022 18.246 22.022 23.042 22.022 24.958 22.022 29.754 25.978 29.754 25.978 24.958 25.978 23.042 25.978 18.246 22.022 18.246" fill="#fab908"/><circle cx="10.1538" cy="22.9211" r="1.978" fill="#0066d9"/><circle cx="10.1538" cy="25.0789" r="1.978" fill="#0066d9"/><rect x="8.1758" y="22.9211" width="3.956" height="2.1578" fill="#0066d9"/><circle cx="37.8462" cy="25.0789" r="1.978" fill="#4285f4"/><circle cx="37.8462" cy="22.9211" r="1.978" fill="#4285f4"/><rect x="35.8681" y="22.9211" width="3.956" height="2.1578" fill="#4285f4"/><circle cx="16.987" cy="29.3946" r="1.978" fill="#ea4335"/><circle cx="16.987" cy="31.5524" r="1.978" fill="#ea4335"/><rect x="15.009" y="29.3946" width="3.956" height="2.1578" fill="#ea4335"/><circle cx="16.987" cy="16.4476" r="1.978" fill="#ea4335"/><circle cx="16.987" cy="23.4605" r="1.978" fill="#ea4335"/><rect x="15.009" y="16.4476" width="3.956" height="7.0579" fill="#ea4335"/><circle cx="31.013" cy="18.6054" r="1.978" fill="#34a853"/><circle cx="31.013" cy="16.4476" r="1.978" fill="#34a853"/><rect x="29.035" y="16.4476" width="3.956" height="2.1578" fill="#34a853"/><circle cx="24" cy="12.3117" r="1.978" fill="#fab908"/><circle cx="24" cy="10.1538" r="1.978" fill="#fab908"/><rect x="22.022" y="10.1538" width="3.956" height="2.1578" fill="#fab908"/><circle cx="24" cy="37.8462" r="1.978" fill="#fab908"/><circle cx="24" cy="35.6883" r="1.978" fill="#fab908"/><rect x="22.022" y="35.6883" width="3.956" height="2.1578" fill="#fab908"/><circle cx="31.013" cy="31.5524" r="1.978" fill="#34a853"/><circle cx="31.013" cy="24.5395" r="1.978" fill="#34a853"/><rect x="29.035" y="24.5395" width="3.956" height="7.013" fill="#34a853"/><circle cx="24" cy="18.2458" r="1.978" fill="#fab908"/><circle cx="24" cy="29.7542" r="1.978" fill="#fab908"/></svg>