<svg id="Layer_1" data-name="Layer 1" xmlns="http://www.w3.org/2000/svg" xmlns:xlink="http://www.w3.org/1999/xlink" viewBox="0 0 690 690">
  <defs>
    <style>
      .cls-1 {
        fill: url(#linear-gradient);
      }

      .cls-2 {
        fill: url(#linear-gradient-2);
      }

      .cls-3 {
        fill: url(#linear-gradient-3);
      }
    </style>
    <linearGradient id="linear-gradient" x1="345" x2="345" y2="690" gradientUnits="userSpaceOnUse">
      <stop offset="0" stop-color="#00ccbf"/>
      <stop offset="1" stop-color="#00b265"/>
    </linearGradient>
    <linearGradient id="linear-gradient-2" x1="-1978.4643" y1="495.2436" x2="-1978.4643" y2="494.5698" gradientTransform="matrix(891, 0, 0, -890.125, 1763157, 440873.875)" gradientUnits="userSpaceOnUse">
      <stop offset="0" stop-color="#151515"/>
      <stop offset="1" stop-color="#353535"/>
    </linearGradient>
    <linearGradient id="linear-gradient-3" x1="-1977.6348" y1="495.4509" x2="-1977.6348" y2="494.7771" gradientTransform="matrix(633.152, 0, 0, -572.607, 1252488.2255, 283829.2573)" gradientUnits="userSpaceOnUse">
      <stop offset="0.3" stop-color="#fff"/>
      <stop offset="1" stop-color="#9cc0b7"/>
    </linearGradient>
  </defs>
  <title>icon-castro</title>
  <g id="Castro">
    <rect class="cls-1" width="690" height="690"/>
    <path id="path-2" class="cls-2" d="M345.3369,45.1465c165.7907,0,300.19,134.2676,300.19,299.8953s-134.4,299.8959-300.19,299.8959S45.1465,510.67,45.1465,345.0418,179.5462,45.1465,345.3369,45.1465Z"/>
    <path id="path-3" class="cls-3" d="M470.2464,516.0661l-50.3309-69.7446a127.1816,127.1816,0,1,0-149.6612.3032l-50.3687,69.7985A212.7419,212.7419,0,0,1,131.503,343.69c0-117.6949,95.5057-213.1056,213.3178-213.1056S558.1386,225.9952,558.1386,343.69A212.7363,212.7363,0,0,1,470.2464,516.0661ZM345.2938,292.2642a51.2682,51.2682,0,1,1-51.3194,51.2682A51.2943,51.2943,0,0,1,345.2938,292.2642Z"/>
  </g>
</svg>
