<svg xmlns="http://www.w3.org/2000/svg" viewBox="0 0 690 690"><title>icon-googleplaymusic</title><path d="M559.8881,316.57,176.3345,98.6324c-16.387-9.2041-31.0478-8.3421-39.9632.2845h0c-6.3219,6.04-9.7763,15.8169-9.7763,28.4691V562.3979c0,12.6586,3.7369,22.436,9.7763,28.47h0c9.201,8.9143,23.5762,9.7763,39.9632.2835L559.8881,373.2109C587.4973,357.6859,587.4973,332.3868,559.8881,316.57Z" fill="#f1471d"/><path d="M527.0952,392.3568a179.45,179.45,0,0,0,6.9089-50.0251c0-101.4971-82.5273-184.0149-184.0191-184.0149-101.495,0-184.0138,82.5178-184.0138,184.0149a183.9927,183.9927,0,0,0,136.2871,177.69Z" fill="#fcd117"/><path d="M468.6036,345.039A115.0088,115.0088,0,1,1,353.5954,230.03,115.0062,115.0062,0,0,1,468.6036,345.039Z" fill="#f48b15"/><path d="M353.5943,284.66v70.72a27.3307,27.3307,0,0,0-13.5142-3.7327,26.7409,26.7409,0,0,0,0,53.4817c14.9559,0,27.8916-12.0821,27.8916-26.745V313.4105h25.8746V284.659h-40.252Z" fill="#fff"/></svg>