<svg xmlns="http://www.w3.org/2000/svg" xmlns:xlink="http://www.w3.org/1999/xlink" viewBox="0 0 48 48"><defs><clipPath id="a"><path d="M5.0494,42.9506C1.3663,39.2675,0,33.2675,0,24S1.3663,8.7325,5.0494,5.0494,14.7325,0,24,0,39.2675,1.3663,42.9506,5.0494,48,14.7325,48,24s-1.3663,15.2675-5.0494,18.9506S33.2675,48,24,48,8.7325,46.6337,5.0494,42.9506Z" fill="none"/></clipPath></defs><title>icon-stitcher-old</title><g clip-path="url(#a)"><rect width="48" height="48"/><path d="M0,16H6.5V33.5H0Z" fill="#feda00"/><path d="M6.75,16h2.5V33.5H6.75Z" fill="#f78f1e"/><path d="M9.51,16H20.251V33.5H9.51Z" fill="#ef4625"/><path d="M20.5,16h16V33.5h-16Z" fill="#00b0eb"/><path d="M37.5,12.5h1V37h-1Z" fill="#fff"/><path d="M39.5,16H48V33.5H39.5Z" fill="#d2d85a"/></g></svg>