<svg xmlns="http://www.w3.org/2000/svg" viewBox="0 0 690 690"><title>icon-googlepodcasts</title><rect width="690" height="690" fill="#fff"/><polygon points="316.566 262.283 316.566 331.222 316.566 358.778 316.566 427.717 373.434 427.717 373.434 358.778 373.434 331.222 373.434 262.283 316.566 262.283" fill="#fab908"/><circle cx="145.9615" cy="329.4905" r="28.4341" fill="#0066d9"/><circle cx="145.9615" cy="360.5095" r="28.4341" fill="#0066d9"/><rect x="117.5275" y="329.4905" width="56.8681" height="31.019" fill="#0066d9"/><circle cx="544.0385" cy="360.5095" r="28.4341" fill="#4285f4"/><circle cx="544.0385" cy="329.4905" r="28.4341" fill="#4285f4"/><rect x="515.6044" y="329.4905" width="56.8681" height="31.019" fill="#4285f4"/><circle cx="244.1883" cy="422.5475" r="28.4341" fill="#ea4335"/><circle cx="244.1883" cy="453.5664" r="28.4341" fill="#ea4335"/><rect x="215.7543" y="422.5475" width="56.8681" height="31.019" fill="#ea4335"/><circle cx="244.1883" cy="236.4336" r="28.4341" fill="#ea4335"/><circle cx="244.1883" cy="337.2452" r="28.4341" fill="#ea4335"/><rect x="215.7543" y="236.4336" width="56.8681" height="101.4579" fill="#ea4335"/><circle cx="445.8117" cy="267.4525" r="28.4341" fill="#34a853"/><circle cx="445.8117" cy="236.4336" r="28.4341" fill="#34a853"/><rect x="417.3776" y="236.4336" width="56.8681" height="31.019" fill="#34a853"/><circle cx="345" cy="176.9805" r="28.4341" fill="#fab908"/><circle cx="345" cy="145.9615" r="28.4341" fill="#fab908"/><rect x="316.566" y="145.9615" width="56.8681" height="31.019" fill="#fab908"/><circle cx="345" cy="544.0385" r="28.4341" fill="#fab908"/><circle cx="345" cy="513.0195" r="28.4341" fill="#fab908"/><rect x="316.566" y="513.0195" width="56.8681" height="31.019" fill="#fab908"/><circle cx="445.8117" cy="453.5664" r="28.4341" fill="#34a853"/><circle cx="445.8117" cy="352.7548" r="28.4341" fill="#34a853"/><rect x="417.3776" y="352.7547" width="56.8681" height="100.8117" fill="#34a853"/><circle cx="345" cy="262.2827" r="28.4341" fill="#fab908"/><circle cx="345" cy="427.7173" r="28.4341" fill="#fab908"/></svg>