<svg xmlns="http://www.w3.org/2000/svg" viewBox="0 0 48 48"><title>icon-googlepodcasts-proto</title><path d="M24,47.5c-9.5991,0-15.1606-1.4668-18.5972-4.9033S.5,33.5986.5,24,1.9663,8.84,5.4028,5.4033,14.4009.5,24,.5,39.1606,1.9668,42.5972,5.4033,47.5,14.4014,47.5,24s-1.4663,15.16-4.9028,18.5967S33.5991,47.5,24,47.5Z" fill="#fff" stroke="#e5e5e5" stroke-miterlimit="10"/><line x1="24" y1="10.25" x2="24" y2="12.25" fill="none" stroke="#fab908" stroke-linecap="round" stroke-miterlimit="10" stroke-width="4"/><line x1="24" y1="35.75" x2="24" y2="37.75" fill="none" stroke="#fab908" stroke-linecap="round" stroke-miterlimit="10" stroke-width="4"/><line x1="24" y1="18.246" x2="24" y2="29.754" fill="none" stroke="#fab908" stroke-linecap="round" stroke-miterlimit="10" stroke-width="4"/><line x1="17" y1="16.5" x2="17" y2="23.5" fill="none" stroke="#ea4335" stroke-linecap="round" stroke-miterlimit="10" stroke-width="4"/><line x1="17" y1="29.5" x2="17" y2="31.5" fill="none" stroke="#ea4335" stroke-linecap="round" stroke-miterlimit="10" stroke-width="4"/><line x1="31" y1="24.5" x2="31" y2="31.5" fill="none" stroke="#34a853" stroke-linecap="round" stroke-miterlimit="10" stroke-width="4"/><line x1="31" y1="18.5" x2="31" y2="16.5" fill="none" stroke="#34a853" stroke-linecap="round" stroke-miterlimit="10" stroke-width="4"/><line x1="38" y1="23" x2="38" y2="25" fill="none" stroke="#4285f4" stroke-linecap="round" stroke-miterlimit="10" stroke-width="4"/><line x1="10" y1="23" x2="10" y2="25" fill="none" stroke="#0066d9" stroke-linecap="round" stroke-miterlimit="10" stroke-width="4"/></svg>