<svg xmlns="http://www.w3.org/2000/svg" xmlns:xlink="http://www.w3.org/1999/xlink" viewBox="0 0 690 690"><defs><linearGradient id="a" x1="-2530.1146" y1="3741.9576" x2="7007.8109" y2="-5913.0058" gradientTransform="matrix(0.0977, 0, 0, -0.0977, 131.7422, 244.4375)" gradientUnits="userSpaceOnUse"><stop offset="0" stop-color="#ffb768"/><stop offset="1" stop-color="#ff390f"/></linearGradient></defs><title>icon-castbox</title><path d="M690,690H0V0H690Z" fill="url(#a)"/><path d="M381.9258,230.584c-12.8028,0-23.18,9.8379-23.18,21.9668v53.2324c0,6.7383-6.1993,12.1289-13.8809,12.1289s-13.8808-5.3906-13.8808-12.1289V233.4141c0-12.1289-10.377-21.9668-23.18-21.9668s-23.18,9.8379-23.18,21.9668v57.9492c0,6.7383-6.1992,12.1289-13.8809,12.1289s-13.8808-5.3906-13.8808-12.1289V270.34c0-12.1289-10.377-21.9668-23.18-21.9668s-23.18,9.8379-23.18,21.9668v49.7285c0,6.7383-6.1992,12.1289-13.8809,12.1289s-13.8808-5.3906-13.8808-12.1289v-5.7949a23.18,23.18,0,0,0-46.3594,0v69a23.18,23.18,0,0,0,46.3594,0v-5.7949c0-6.7383,6.1992-12.1289,13.8808-12.1289s13.8809,5.3906,13.8809,12.1289v78.9726c0,12.1289,10.377,21.9668,23.18,21.9668s23.18-9.8379,23.18-21.9668V348.9082c0-6.7382,6.1992-12.1289,13.8808-12.1289s13.8809,5.3907,13.8809,12.1289V403.084c0,12.1289,10.3769,21.9668,23.18,21.9668s23.18-9.8379,23.18-21.9668V363.1934c0-6.7383,6.1992-12.1289,13.8808-12.1289s13.8809,5.3906,13.8809,12.1289v42.5859c0,12.129,10.3769,21.9668,23.18,21.9668s23.18-9.8378,23.18-21.9668V252.5508c0-12.1289-10.377-21.9668-23.18-21.9668m74.1211,59.4317c-12.8028,0-23.18,9.8379-23.18,21.9668V399.58c0,12.1289,10.3769,21.9668,23.18,21.9668s23.18-9.8379,23.18-21.9668V311.9825c0-12.1289-10.377-21.9668-23.18-21.9668m73.9863,44.4726c-12.8027,0-23.18,9.8379-23.18,21.9668v21.8321c0,12.1289,10.377,21.9667,23.18,21.9667s23.18-9.8378,23.18-21.9667V356.4551c0-12.1289-10.377-21.9668-23.18-21.9668" fill="#fff"/></svg>