<svg xmlns="http://www.w3.org/2000/svg" xmlns:xlink="http://www.w3.org/1999/xlink" viewBox="0 0 690 690"><defs><linearGradient id="a" x1="345" x2="345" y2="690" gradientUnits="userSpaceOnUse"><stop offset="0" stop-color="#c90025"/><stop offset="1" stop-color="#aa001f"/></linearGradient></defs><title>icon-iheartradio</title><rect width="690" height="690" fill="url(#a)"/><path d="M473.6449,137c-52.8983,0-100.7184,27.93-128.2256,69.4028C317.9122,165.3538,270.5152,137,217.1937,137A153.154,153.154,0,0,0,64,290.1935c0,53.7445,33.855,92.2549,69.4026,128.2258l138.8053,131.188a11.32,11.32,0,0,0,19.0434-8.4637V438.7325a53.7448,53.7448,0,0,1,107.49,0V541.1436a11.32,11.32,0,0,0,19.0434,8.4637L556.59,418.4193c35.5477-35.9709,69.4026-74.4808,69.4026-128.2258C626.8387,205.5561,558.2823,137,473.6449,137ZM206.1907,408.2627a10.0051,10.0051,0,0,1-8.04,3.3857,11.49,11.49,0,0,1-7.1942-2.539c-45.7042-40.6258-68.9795-82.9445-68.9795-125.6863V283c0-36.817,22.4289-78.7127,52.4752-97.7561a10.7436,10.7436,0,0,1,11.4261,18.1973c-23.6985,14.8115-42.3187,49.9363-42.3187,79.5593v.4231c0,36.394,20.7361,73.6347,61.7853,110.0286a9.9146,9.9146,0,0,1,.8464,14.8116Zm68.5564-39.3565a11.0287,11.0287,0,0,1-9.31,5.5016,11.265,11.265,0,0,1-5.0783-1.27c-30.8926-17.35-52.0519-51.6286-52.0519-85.06v-.423a86.009,86.009,0,0,1,45.7041-75.7506,10.6933,10.6933,0,1,1,9.7332,19.0434,64.4926,64.4926,0,0,0-34.7013,57.13c0,26.2374,16.5042,52.8984,41.0491,66.44,5.5014,2.9621,7.6174,9.31,4.6551,14.3885Zm70.6722-27.0841a46.1275,46.1275,0,1,1,46.1274-46.1275A46.2357,46.2357,0,0,1,345.4193,341.8221ZM430.48,373.138a11.27,11.27,0,0,1-5.0783,1.27,11.0286,11.0286,0,0,1-9.31-5.5016c-2.9624-5.0781-.8464-11.4259,4.2319-14.3885,24.5447-13.9654,41.0491-40.6259,41.0491-66.44,0-24.1214-13.1188-45.7044-34.7013-57.13a10.6933,10.6933,0,1,1,9.7332-19.0434,85.2,85.2,0,0,1,45.7041,75.7506v.423c.4233,33.4319-20.3129,67.71-51.6288,85.06Zm137.959-89.7154c0,42.7418-23.2753,85.06-68.9794,125.6863a11.3415,11.3415,0,0,1-15.2348-.8467,10.6217,10.6217,0,0,1,.8465-14.8115c41.0492-36.394,61.7853-73.2116,61.7853-110.0286v-.4231c0-29.6231-18.62-64.7478-42.3187-79.5594-5.0783-2.9621-6.3478-9.7335-3.3855-14.8115s9.7333-6.3478,14.8116-3.3857c29.6231,18.62,52.4752,60.5159,52.4752,97.7561v.4231Z" fill="#fff"/></svg>