<svg xmlns="http://www.w3.org/2000/svg" viewBox="0 0 32 32">
  <path fill="rgba(0,0,0,.5)" d="M17.88,19.61a4.65,4.65,0,0,1-4-1.49,6,6,0,0,1-.62-.73,7.51,7.51,0,0,1,1.05-.8.8.8,0,0,1,1,.11h0a2.76,2.76,0,0,0,2.24.93h0c1.76-.31,5.1-3.66,5.42-5.42A2.76,2.76,0,0,0,22,10h0a2.77,2.77,0,0,0-2.23-.94A6.8,6.8,0,0,0,17,10.78a6.19,6.19,0,0,0-2.38-.44c1.47-1.61,3.37-3,4.81-3.25a4.62,4.62,0,0,1,4,1.49h0a4.62,4.62,0,0,1,1.49,4C24.45,15.14,20.44,19.15,17.88,19.61ZM7.09,19.42a4.62,4.62,0,0,0,1.49,4h0a4.62,4.62,0,0,0,4,1.49c1.44-.25,3.34-1.64,4.81-3.25A6.19,6.19,0,0,1,15,21.22,6.8,6.8,0,0,1,12.22,23,2.77,2.77,0,0,1,10,22h0a2.76,2.76,0,0,1-.94-2.23c.32-1.76,3.66-5.11,5.42-5.42h0a2.76,2.76,0,0,1,2.24.93h0a.8.8,0,0,0,1,.11,7.51,7.51,0,0,0,1-.8,6,6,0,0,0-.62-.73,4.65,4.65,0,0,0-4-1.49C11.56,12.85,7.55,16.86,7.09,19.42Z"/>
</svg>