<svg id="Layer_1" data-name="Layer 1" xmlns="http://www.w3.org/2000/svg" viewBox="0 0 192 192">
  <title>favicon</title>
  <path d="M72.3,64.86c-1.14-12,.42-25.86,4.68-32.28A22.44,22.44,0,0,1,96,24a22.44,22.44,0,0,1,19.02,8.58c4.26,6.42,6,20.4,4.68,32.28A52.5574,52.5574,0,0,1,117.78,75a21.9593,21.9593,0,0,1-2.76,6.42,17.3994,17.3994,0,0,1-7.2,6,23.0392,23.0392,0,0,1-6,1.98,29.1,29.1,0,0,1-12,0,30,30,0,0,1,1.74-10.56A8.88,8.88,0,0,1,96,78a12,12,0,0,0,8.88-3h0a28.6188,28.6188,0,0,0,2.76-12,58.027,58.027,0,0,0,0-6.48,37.68,37.68,0,0,0-2.94-16.86A11.52,11.52,0,0,0,96,36a11.46,11.46,0,0,0-9.06,3.24A37.68,37.68,0,0,0,84,56.1,24.54,24.54,0,0,0,72.3,64.86ZM96,126a22.44,22.44,0,0,0,19.02-8.58c4.26-6.42,6-20.4,4.68-32.28A24.54,24.54,0,0,1,108,93.9a37.68,37.68,0,0,1-2.94,16.86A11.46,11.46,0,0,1,96,114a11.52,11.52,0,0,1-9.06-3.24A37.68,37.68,0,0,1,84,93.9a58.027,58.027,0,0,1,0-6.48,28.6188,28.6188,0,0,1,2.76-12h0A12,12,0,0,1,96,72a8.88,8.88,0,0,0,4.14-.84A30,30,0,0,0,102,60.6a29.1,29.1,0,0,0-12,0,23.0392,23.0392,0,0,0-6,1.98,17.4,17.4,0,0,0-7.2,6A21.9593,21.9593,0,0,0,74.04,75a52.5574,52.5574,0,0,0-1.92,10.14c-1.14,12,.42,25.86,4.68,32.28A22.44,22.44,0,0,0,96,126Zm36-3.84a10.5,10.5,0,0,0-8.16-5.16c-1.08,0-2.4,1.74-3.48,3.42h0l-.36.6A28.32,28.32,0,0,1,96,132a28.32,28.32,0,0,1-24-10.8h0v-.54h0c-1.08-1.68-2.4-3.18-3.48-3.42a10.5,10.5,0,0,0-8.16,5.16,6.36,6.36,0,0,0,1.02,3.72l.36.6h0l.48.9v.3h0A38.7,38.7,0,0,0,90,143.58V156H81.3a8.6407,8.6407,0,0,0-5.1,1.14,10.2,10.2,0,0,0,0,9.66,8.22,8.22,0,0,0,5.1,1.2h29.4a8.64,8.64,0,0,0,5.1-1.14,10.2,10.2,0,0,0,0-9.66,8.22,8.22,0,0,0-5.1-1.2H102V143.58a38.76,38.76,0,0,0,27.66-15.78h0l.6-1.02h0v-.54A6.36,6.36,0,0,0,132,122.16Z"/>
</svg>
